# Blender 5.0.1
# www.blender.org
mtllib bench.mtl
o Cube.006
v -0.950000 0.375000 0.182500
v -0.950000 0.375000 0.097500
v -0.950000 0.345000 0.182500
v -0.950000 0.345000 0.097500
v 0.950000 0.375000 0.182500
v 0.950000 0.375000 0.097500
v 0.950000 0.345000 0.182500
v 0.950000 0.345000 0.097500
v -0.850000 -0.375465 0.757022
v -0.850000 0.267236 0.854157
v -0.830000 -0.376266 0.762321
v -0.830000 0.266435 0.859456
v -0.815359 -0.378454 0.776797
v -0.815359 0.264247 0.873932
v -0.810000 -0.381443 0.796573
v -0.810000 0.261259 0.893708
v -0.815359 -0.384431 0.816348
v -0.815359 0.258270 0.913483
v -0.830000 -0.386619 0.830825
v -0.830000 0.256082 0.927960
v -0.850000 -0.387420 0.836124
v -0.850000 0.255281 0.933258
v -0.870000 -0.386619 0.830825
v -0.870000 0.256082 0.927960
v -0.884641 -0.384431 0.816348
v -0.884641 0.258270 0.913483
v -0.890000 -0.381443 0.796573
v -0.890000 0.261259 0.893708
v -0.884641 -0.378454 0.776797
v -0.884641 0.264247 0.873932
v -0.870000 -0.376266 0.762321
v -0.870000 0.266435 0.859456
v -0.850000 -0.325852 0.830259
v -0.850000 -0.258605 0.385311
v -0.832500 -0.321216 0.830959
v -0.832500 -0.253969 0.386012
v -0.819689 -0.308549 0.832874
v -0.819689 -0.241302 0.387927
v -0.815000 -0.291245 0.835489
v -0.815000 -0.223998 0.390542
v -0.819689 -0.273942 0.838104
v -0.819689 -0.206695 0.393157
v -0.832500 -0.261275 0.840018
v -0.832500 -0.194028 0.395071
v -0.850000 -0.256638 0.840719
v -0.850000 -0.189391 0.395772
v -0.867500 -0.261275 0.840018
v -0.867500 -0.194028 0.395071
v -0.880311 -0.273942 0.838104
v -0.880311 -0.206695 0.393157
v -0.885000 -0.291245 0.835489
v -0.885000 -0.223998 0.390542
v -0.880311 -0.308549 0.832874
v -0.880311 -0.241302 0.387927
v -0.867500 -0.321216 0.830959
v -0.867500 -0.253969 0.386012
v -0.850000 0.201988 0.910497
v -0.850000 0.201988 0.060497
v -0.832500 0.206677 0.910497
v -0.832500 0.206677 0.060497
v -0.819689 0.219488 0.910497
v -0.819689 0.219488 0.060497
v -0.815000 0.236988 0.910497
v -0.815000 0.236988 0.060497
v -0.819689 0.254488 0.910497
v -0.819689 0.254488 0.060497
v -0.832500 0.267299 0.910497
v -0.832500 0.267299 0.060497
v -0.850000 0.271988 0.910497
v -0.850000 0.271988 0.060497
v -0.867500 0.267299 0.910497
v -0.867500 0.267299 0.060497
v -0.880311 0.254488 0.910497
v -0.880311 0.254488 0.060497
v -0.885000 0.236988 0.910497
v -0.885000 0.236988 0.060497
v -0.880311 0.219488 0.910497
v -0.880311 0.219488 0.060497
v -0.867500 0.206677 0.910497
v -0.867500 0.206677 0.060497
v -0.850000 -0.222105 0.244181
v -0.850000 0.272281 0.318900
v -0.835000 -0.222706 0.248155
v -0.835000 0.271680 0.322874
v -0.824019 -0.224347 0.259013
v -0.824019 0.270039 0.333732
v -0.820000 -0.226588 0.273844
v -0.820000 0.267797 0.348563
v -0.824019 -0.228830 0.288676
v -0.824019 0.265556 0.363395
v -0.835000 -0.230471 0.299533
v -0.835000 0.263915 0.374252
v -0.850000 -0.231071 0.303507
v -0.850000 0.263314 0.378227
v -0.865000 -0.230471 0.299533
v -0.865000 0.263915 0.374252
v -0.875981 -0.228830 0.288676
v -0.875981 0.265556 0.363395
v -0.880000 -0.226588 0.273844
v -0.880000 0.267797 0.348563
v -0.875981 -0.224347 0.259013
v -0.875981 0.270039 0.333732
v -0.865000 -0.222706 0.248155
v -0.865000 0.271680 0.322874
v 0.850000 -0.375465 0.757022
v 0.850000 0.267236 0.854157
v 0.870000 -0.376266 0.762321
v 0.870000 0.266435 0.859456
v 0.884641 -0.378454 0.776797
v 0.884641 0.264247 0.873932
v 0.890000 -0.381443 0.796573
v 0.890000 0.261259 0.893708
v 0.884641 -0.384431 0.816348
v 0.884641 0.258270 0.913483
v 0.870000 -0.386619 0.830825
v 0.870000 0.256082 0.927960
v 0.850000 -0.387420 0.836124
v 0.850000 0.255281 0.933258
v 0.830000 -0.386619 0.830825
v 0.830000 0.256082 0.927960
v 0.815359 -0.384431 0.816348
v 0.815359 0.258270 0.913483
v 0.810000 -0.381443 0.796573
v 0.810000 0.261259 0.893708
v 0.815359 -0.378454 0.776797
v 0.815359 0.264247 0.873932
v 0.830000 -0.376266 0.762321
v 0.830000 0.266435 0.859456
v 0.850000 -0.325852 0.830259
v 0.850000 -0.258605 0.385311
v 0.867500 -0.321216 0.830959
v 0.867500 -0.253969 0.386012
v 0.880311 -0.308549 0.832874
v 0.880311 -0.241302 0.387927
v 0.885000 -0.291245 0.835489
v 0.885000 -0.223998 0.390542
v 0.880311 -0.273942 0.838104
v 0.880311 -0.206695 0.393157
v 0.867500 -0.261275 0.840018
v 0.867500 -0.194028 0.395071
v 0.850000 -0.256638 0.840719
v 0.850000 -0.189391 0.395772
v 0.832500 -0.261275 0.840018
v 0.832500 -0.194028 0.395071
v 0.819689 -0.273942 0.838104
v 0.819689 -0.206695 0.393157
v 0.815000 -0.291245 0.835489
v 0.815000 -0.223998 0.390542
v 0.819689 -0.308549 0.832874
v 0.819689 -0.241302 0.387927
v 0.832500 -0.321216 0.830959
v 0.832500 -0.253969 0.386012
v 0.850000 0.201988 0.910497
v 0.850000 0.201988 0.060497
v 0.867500 0.206677 0.910497
v 0.867500 0.206677 0.060497
v 0.880311 0.219488 0.910497
v 0.880311 0.219488 0.060497
v 0.885000 0.236988 0.910497
v 0.885000 0.236988 0.060497
v 0.880311 0.254488 0.910497
v 0.880311 0.254488 0.060497
v 0.867500 0.267299 0.910497
v 0.867500 0.267299 0.060497
v 0.850000 0.271988 0.910497
v 0.850000 0.271988 0.060497
v 0.832500 0.267299 0.910497
v 0.832500 0.267299 0.060497
v 0.819689 0.254488 0.910497
v 0.819689 0.254488 0.060497
v 0.815000 0.236988 0.910497
v 0.815000 0.236988 0.060497
v 0.819689 0.219488 0.910497
v 0.819689 0.219488 0.060497
v 0.832500 0.206677 0.910497
v 0.832500 0.206677 0.060497
v 0.850000 -0.222105 0.244181
v 0.850000 0.272281 0.318900
v 0.865000 -0.222706 0.248155
v 0.865000 0.271680 0.322874
v 0.875981 -0.224347 0.259013
v 0.875981 0.270039 0.333732
v 0.880000 -0.226588 0.273844
v 0.880000 0.267797 0.348563
v 0.875981 -0.228830 0.288676
v 0.875981 0.265556 0.363395
v 0.865000 -0.230471 0.299533
v 0.865000 0.263915 0.374252
v 0.850000 -0.231071 0.303507
v 0.850000 0.263314 0.378227
v 0.835000 -0.230471 0.299533
v 0.835000 0.263915 0.374252
v 0.824019 -0.228830 0.288676
v 0.824019 0.265556 0.363395
v 0.820000 -0.226588 0.273844
v 0.820000 0.267797 0.348563
v 0.824019 -0.224347 0.259013
v 0.824019 0.270039 0.333732
v 0.835000 -0.222706 0.248155
v 0.835000 0.271680 0.322874
v -0.950000 0.177892 0.491736
v -0.950000 0.182376 0.462073
v -0.950000 0.093847 0.479034
v -0.950000 0.098330 0.449370
v 0.950000 0.177892 0.491736
v 0.950000 0.182376 0.462073
v 0.950000 0.093847 0.479034
v 0.950000 0.098330 0.449370
v -0.950000 0.069128 0.475298
v -0.950000 0.073611 0.445635
v -0.950000 -0.014918 0.462595
v -0.950000 -0.010435 0.432932
v 0.950000 0.069128 0.475298
v 0.950000 0.073611 0.445635
v 0.950000 -0.014918 0.462595
v 0.950000 -0.010435 0.432932
v -0.950000 -0.039637 0.458859
v -0.950000 -0.035154 0.429196
v -0.950000 -0.123683 0.446157
v -0.950000 -0.119200 0.416494
v 0.950000 -0.039637 0.458859
v 0.950000 -0.035154 0.429196
v 0.950000 -0.123683 0.446157
v 0.950000 -0.119200 0.416494
v -0.950000 -0.148402 0.442421
v -0.950000 -0.143919 0.412758
v -0.950000 -0.232448 0.429719
v -0.950000 -0.227965 0.400056
v 0.950000 -0.148402 0.442421
v 0.950000 -0.143919 0.412758
v 0.950000 -0.232448 0.429719
v 0.950000 -0.227965 0.400056
v -0.950000 0.240258 0.404861
v -0.950000 0.240258 0.319861
v -0.950000 0.210258 0.404861
v -0.950000 0.210258 0.319861
v 0.950000 0.240258 0.404861
v 0.950000 0.240258 0.319861
v 0.950000 0.210258 0.404861
v 0.950000 0.210258 0.319861
v -0.950000 0.307629 0.293681
v -0.950000 0.307629 0.208681
v -0.950000 0.277629 0.293681
v -0.950000 0.277629 0.208681
v 0.950000 0.307629 0.293681
v 0.950000 0.307629 0.208681
v 0.950000 0.277629 0.293681
v 0.950000 0.277629 0.208681
vn -1.0000 -0.0000 -0.0000
vn -0.0000 -1.0000 -0.0000
vn 1.0000 -0.0000 -0.0000
vn -0.0000 1.0000 -0.0000
vn -0.0000 -0.0000 1.0000
vn -0.0000 -0.0000 -1.0000
vn 0.2588 0.1443 -0.9551
vn 0.7071 0.1057 -0.6992
vn 0.9659 0.0387 -0.2559
vn 0.9659 -0.0387 0.2559
vn 0.7071 -0.1057 0.6992
vn 0.2588 -0.1443 0.9551
vn -0.2588 -0.1443 0.9551
vn -0.7071 -0.1057 0.6992
vn -0.9659 -0.0387 0.2559
vn -0.9659 0.0387 -0.2559
vn -0.0000 0.9888 0.1494
vn -0.7071 0.1057 -0.6992
vn -0.2588 0.1443 -0.9551
vn -0.0000 -0.9888 -0.1494
vn 0.2588 -0.9551 -0.1443
vn 0.7071 -0.6992 -0.1057
vn 0.9659 -0.2559 -0.0387
vn 0.9659 0.2559 0.0387
vn 0.7071 0.6992 0.1057
vn 0.2588 0.9551 0.1443
vn -0.2588 0.9551 0.1443
vn -0.7071 0.6992 0.1057
vn -0.9659 0.2559 0.0387
vn -0.9659 -0.2559 -0.0387
vn -0.0000 0.1494 -0.9888
vn -0.7071 -0.6992 -0.1057
vn -0.2588 -0.9551 -0.1443
vn -0.0000 -0.1494 0.9888
vn 0.2588 -0.9659 -0.0000
vn 0.7071 -0.7071 -0.0000
vn 0.9659 -0.2588 -0.0000
vn 0.9659 0.2588 -0.0000
vn 0.7071 0.7071 -0.0000
vn 0.2588 0.9659 -0.0000
vn -0.2588 0.9659 -0.0000
vn -0.7071 0.7071 -0.0000
vn -0.9659 0.2588 -0.0000
vn -0.9659 -0.2588 -0.0000
vn -0.7071 -0.7071 -0.0000
vn -0.2588 -0.9659 -0.0000
vn -0.0000 0.9888 0.1495
vt 0.375000 0.000000
vt 0.625000 0.000000
vt 0.625000 0.250000
vt 0.375000 0.250000
vt 0.625000 0.500000
vt 0.375000 0.500000
vt 0.625000 0.750000
vt 0.375000 0.750000
vt 0.625000 1.000000
vt 0.375000 1.000000
vt 0.125000 0.500000
vt 0.125000 0.750000
vt 0.875000 0.500000
vt 0.875000 0.750000
vt 1.000000 0.500000
vt 1.000000 1.000000
vt 0.916667 1.000000
vt 0.916667 0.500000
vt 0.833333 1.000000
vt 0.833333 0.500000
vt 0.750000 1.000000
vt 0.750000 0.500000
vt 0.666667 1.000000
vt 0.666667 0.500000
vt 0.583333 1.000000
vt 0.583333 0.500000
vt 0.500000 1.000000
vt 0.500000 0.500000
vt 0.416667 1.000000
vt 0.416667 0.500000
vt 0.333333 1.000000
vt 0.333333 0.500000
vt 0.250000 1.000000
vt 0.250000 0.500000
vt 0.166667 1.000000
vt 0.166667 0.500000
vt 0.370000 0.457846
vt 0.250000 0.490000
vt 0.130000 0.457846
vt 0.042154 0.370000
vt 0.010000 0.250000
vt 0.042154 0.130000
vt 0.130000 0.042154
vt 0.250000 0.010000
vt 0.370000 0.042154
vt 0.457846 0.130000
vt 0.490000 0.250000
vt 0.457846 0.370000
vt 0.083333 1.000000
vt 0.083333 0.500000
vt 0.000000 1.000000
vt 0.000000 0.500000
vt 0.750000 0.490000
vt 0.870000 0.457846
vt 0.957846 0.370000
vt 0.990000 0.250000
vt 0.957846 0.130000
vt 0.870000 0.042154
vt 0.750000 0.010000
vt 0.630000 0.042154
vt 0.542154 0.130000
vt 0.510000 0.250000
vt 0.542154 0.370000
vt 0.630000 0.457846
s 1
f 1/1/1 2/2/1 4/3/1 3/4/1
f 3/4/2 4/3/2 8/5/2 7/6/2
f 7/6/3 8/5/3 6/7/3 5/8/3
f 5/8/4 6/7/4 2/9/4 1/10/4
f 3/11/5 7/6/5 5/8/5 1/12/5
f 8/5/6 4/13/6 2/14/6 6/7/6
f 9/15/7 10/16/7 12/17/7 11/18/7
f 11/18/8 12/17/8 14/19/8 13/20/8
f 13/20/9 14/19/9 16/21/9 15/22/9
f 15/22/10 16/21/10 18/23/10 17/24/10
f 17/24/11 18/23/11 20/25/11 19/26/11
f 19/26/12 20/25/12 22/27/12 21/28/12
f 21/28/13 22/27/13 24/29/13 23/30/13
f 23/30/14 24/29/14 26/31/14 25/32/14
f 25/32/15 26/31/15 28/33/15 27/34/15
f 27/34/16 28/33/16 30/35/16 29/36/16
f 12/37/17 10/38/17 32/39/17 30/40/17 28/41/17 26/42/17 24/43/17 22/44/17 20/45/17 18/46/17 16/47/17 14/48/17
f 29/36/18 30/35/18 32/49/18 31/50/18
f 31/50/19 32/49/19 10/51/19 9/52/19
f 9/53/20 11/54/20 13/55/20 15/56/20 17/57/20 19/58/20 21/59/20 23/60/20 25/61/20 27/62/20 29/63/20 31/64/20
f 33/15/21 34/16/21 36/17/21 35/18/21
f 35/18/22 36/17/22 38/19/22 37/20/22
f 37/20/23 38/19/23 40/21/23 39/22/23
f 39/22/24 40/21/24 42/23/24 41/24/24
f 41/24/25 42/23/25 44/25/25 43/26/25
f 43/26/26 44/25/26 46/27/26 45/28/26
f 45/28/27 46/27/27 48/29/27 47/30/27
f 47/30/28 48/29/28 50/31/28 49/32/28
f 49/32/29 50/31/29 52/33/29 51/34/29
f 51/34/30 52/33/30 54/35/30 53/36/30
f 36/37/31 34/38/31 56/39/31 54/40/31 52/41/31 50/42/31 48/43/31 46/44/31 44/45/31 42/46/31 40/47/31 38/48/31
f 53/36/32 54/35/32 56/49/32 55/50/32
f 55/50/33 56/49/33 34/51/33 33/52/33
f 33/53/34 35/54/34 37/55/34 39/56/34 41/57/34 43/58/34 45/59/34 47/60/34 49/61/34 51/62/34 53/63/34 55/64/34
f 57/15/35 58/16/35 60/17/35 59/18/35
f 59/18/36 60/17/36 62/19/36 61/20/36
f 61/20/37 62/19/37 64/21/37 63/22/37
f 63/22/38 64/21/38 66/23/38 65/24/38
f 65/24/39 66/23/39 68/25/39 67/26/39
f 67/26/40 68/25/40 70/27/40 69/28/40
f 69/28/41 70/27/41 72/29/41 71/30/41
f 71/30/42 72/29/42 74/31/42 73/32/42
f 73/32/43 74/31/43 76/33/43 75/34/43
f 75/34/44 76/33/44 78/35/44 77/36/44
f 60/37/6 58/38/6 80/39/6 78/40/6 76/41/6 74/42/6 72/43/6 70/44/6 68/45/6 66/46/6 64/47/6 62/48/6
f 77/36/45 78/35/45 80/49/45 79/50/45
f 79/50/46 80/49/46 58/51/46 57/52/46
f 57/53/5 59/54/5 61/55/5 63/56/5 65/57/5 67/58/5 69/59/5 71/60/5 73/61/5 75/62/5 77/63/5 79/64/5
f 81/15/7 82/16/7 84/17/7 83/18/7
f 83/18/8 84/17/8 86/19/8 85/20/8
f 85/20/9 86/19/9 88/21/9 87/22/9
f 87/22/10 88/21/10 90/23/10 89/24/10
f 89/24/11 90/23/11 92/25/11 91/26/11
f 91/26/12 92/25/12 94/27/12 93/28/12
f 93/28/13 94/27/13 96/29/13 95/30/13
f 95/30/14 96/29/14 98/31/14 97/32/14
f 97/32/15 98/31/15 100/33/15 99/34/15
f 99/34/16 100/33/16 102/35/16 101/36/16
f 84/37/17 82/38/17 104/39/17 102/40/17 100/41/17 98/42/17 96/43/17 94/44/17 92/45/17 90/46/17 88/47/17 86/48/17
f 101/36/18 102/35/18 104/49/18 103/50/18
f 103/50/19 104/49/19 82/51/19 81/52/19
f 81/53/20 83/54/20 85/55/20 87/56/20 89/57/20 91/58/20 93/59/20 95/60/20 97/61/20 99/62/20 101/63/20 103/64/20
f 105/15/7 106/16/7 108/17/7 107/18/7
f 107/18/8 108/17/8 110/19/8 109/20/8
f 109/20/9 110/19/9 112/21/9 111/22/9
f 111/22/10 112/21/10 114/23/10 113/24/10
f 113/24/11 114/23/11 116/25/11 115/26/11
f 115/26/12 116/25/12 118/27/12 117/28/12
f 117/28/13 118/27/13 120/29/13 119/30/13
f 119/30/14 120/29/14 122/31/14 121/32/14
f 121/32/15 122/31/15 124/33/15 123/34/15
f 123/34/16 124/33/16 126/35/16 125/36/16
f 108/37/17 106/38/17 128/39/17 126/40/17 124/41/17 122/42/17 120/43/17 118/44/17 116/45/17 114/46/17 112/47/17 110/48/17
f 125/36/18 126/35/18 128/49/18 127/50/18
f 127/50/19 128/49/19 106/51/19 105/52/19
f 105/53/20 107/54/20 109/55/20 111/56/20 113/57/20 115/58/20 117/59/20 119/60/20 121/61/20 123/62/20 125/63/20 127/64/20
f 129/15/21 130/16/21 132/17/21 131/18/21
f 131/18/22 132/17/22 134/19/22 133/20/22
f 133/20/23 134/19/23 136/21/23 135/22/23
f 135/22/24 136/21/24 138/23/24 137/24/24
f 137/24/25 138/23/25 140/25/25 139/26/25
f 139/26/26 140/25/26 142/27/26 141/28/26
f 141/28/27 142/27/27 144/29/27 143/30/27
f 143/30/28 144/29/28 146/31/28 145/32/28
f 145/32/29 146/31/29 148/33/29 147/34/29
f 147/34/30 148/33/30 150/35/30 149/36/30
f 132/37/31 130/38/31 152/39/31 150/40/31 148/41/31 146/42/31 144/43/31 142/44/31 140/45/31 138/46/31 136/47/31 134/48/31
f 149/36/32 150/35/32 152/49/32 151/50/32
f 151/50/33 152/49/33 130/51/33 129/52/33
f 129/53/34 131/54/34 133/55/34 135/56/34 137/57/34 139/58/34 141/59/34 143/60/34 145/61/34 147/62/34 149/63/34 151/64/34
f 153/15/35 154/16/35 156/17/35 155/18/35
f 155/18/36 156/17/36 158/19/36 157/20/36
f 157/20/37 158/19/37 160/21/37 159/22/37
f 159/22/38 160/21/38 162/23/38 161/24/38
f 161/24/39 162/23/39 164/25/39 163/26/39
f 163/26/40 164/25/40 166/27/40 165/28/40
f 165/28/41 166/27/41 168/29/41 167/30/41
f 167/30/42 168/29/42 170/31/42 169/32/42
f 169/32/43 170/31/43 172/33/43 171/34/43
f 171/34/44 172/33/44 174/35/44 173/36/44
f 156/37/6 154/38/6 176/39/6 174/40/6 172/41/6 170/42/6 168/43/6 166/44/6 164/45/6 162/46/6 160/47/6 158/48/6
f 173/36/45 174/35/45 176/49/45 175/50/45
f 175/50/46 176/49/46 154/51/46 153/52/46
f 153/53/5 155/54/5 157/55/5 159/56/5 161/57/5 163/58/5 165/59/5 167/60/5 169/61/5 171/62/5 173/63/5 175/64/5
f 177/15/7 178/16/7 180/17/7 179/18/7
f 179/18/8 180/17/8 182/19/8 181/20/8
f 181/20/9 182/19/9 184/21/9 183/22/9
f 183/22/10 184/21/10 186/23/10 185/24/10
f 185/24/11 186/23/11 188/25/11 187/26/11
f 187/26/12 188/25/12 190/27/12 189/28/12
f 189/28/13 190/27/13 192/29/13 191/30/13
f 191/30/14 192/29/14 194/31/14 193/32/14
f 193/32/15 194/31/15 196/33/15 195/34/15
f 195/34/16 196/33/16 198/35/16 197/36/16
f 180/37/17 178/38/17 200/39/17 198/40/17 196/41/17 194/42/17 192/43/17 190/44/17 188/45/17 186/46/17 184/47/17 182/48/17
f 197/36/18 198/35/18 200/49/18 199/50/18
f 199/50/19 200/49/19 178/51/19 177/52/19
f 177/53/20 179/54/20 181/55/20 183/56/20 185/57/20 187/58/20 189/59/20 191/60/20 193/61/20 195/62/20 197/63/20 199/64/20
f 201/1/1 202/2/1 204/3/1 203/4/1
f 203/4/20 204/3/20 208/5/20 207/6/20
f 207/6/3 208/5/3 206/7/3 205/8/3
f 205/8/47 206/7/47 202/9/47 201/10/47
f 203/11/34 207/6/34 205/8/34 201/12/34
f 208/5/31 204/13/31 202/14/31 206/7/31
f 209/1/1 210/2/1 212/3/1 211/4/1
f 211/4/20 212/3/20 216/5/20 215/6/20
f 215/6/3 216/5/3 214/7/3 213/8/3
f 213/8/17 214/7/17 210/9/17 209/10/17
f 211/11/34 215/6/34 213/8/34 209/12/34
f 216/5/31 212/13/31 210/14/31 214/7/31
f 217/1/1 218/2/1 220/3/1 219/4/1
f 219/4/20 220/3/20 224/5/20 223/6/20
f 223/6/3 224/5/3 222/7/3 221/8/3
f 221/8/17 222/7/17 218/9/17 217/10/17
f 219/11/34 223/6/34 221/8/34 217/12/34
f 224/5/31 220/13/31 218/14/31 222/7/31
f 225/1/1 226/2/1 228/3/1 227/4/1
f 227/4/20 228/3/20 232/5/20 231/6/20
f 231/6/3 232/5/3 230/7/3 229/8/3
f 229/8/17 230/7/17 226/9/17 225/10/17
f 227/11/34 231/6/34 229/8/34 225/12/34
f 232/5/31 228/13/31 226/14/31 230/7/31
f 233/1/1 234/2/1 236/3/1 235/4/1
f 235/4/2 236/3/2 240/5/2 239/6/2
f 239/6/3 240/5/3 238/7/3 237/8/3
f 237/8/4 238/7/4 234/9/4 233/10/4
f 235/11/5 239/6/5 237/8/5 233/12/5
f 240/5/6 236/13/6 234/14/6 238/7/6
f 241/1/1 242/2/1 244/3/1 243/4/1
f 243/4/2 244/3/2 248/5/2 247/6/2
f 247/6/3 248/5/3 246/7/3 245/8/3
f 245/8/4 246/7/4 242/9/4 241/10/4
f 243/11/5 247/6/5 245/8/5 241/12/5
f 248/5/6 244/13/6 242/14/6 246/7/6
