# Clean Procedural OBJ
v -0.9000 0.2000 2.1000
v 0.9000 0.2000 2.1000
v 0.9000 0.6500 2.1000
v -0.9000 0.6500 2.1000
v 0.9000 0.2000 -2.1000
v -0.9000 0.2000 -2.1000
v -0.9000 0.6500 -2.1000
v 0.9000 0.6500 -2.1000
v -0.7500 0.6500 0.7000
v 0.7500 0.6500 0.7000
v 0.7500 1.2500 0.7000
v -0.7500 1.2500 0.7000
v 0.7500 0.6500 -1.2000
v -0.7500 0.6500 -1.2000
v -0.7500 1.2500 -1.2000
v 0.7500 1.2500 -1.2000
v -0.8500 0.6000 1.9500
v 0.8500 0.6000 1.9500
v 0.8500 0.7200 1.9500
v -0.8500 0.7200 1.9500
v 0.8500 0.6000 0.7000
v -0.8500 0.6000 0.7000
v -0.8500 0.7200 0.7000
v 0.8500 0.7200 0.7000
v -0.8500 0.6000 -1.2000
v 0.8500 0.6000 -1.2000
v 0.8500 0.7500 -1.2000
v -0.8500 0.7500 -1.2000
v 0.8500 0.6000 -1.9500
v -0.8500 0.6000 -1.9500
v -0.8500 0.7500 -1.9500
v 0.8500 0.7500 -1.9500
v -0.8800 0.1500 2.2500
v 0.8800 0.1500 2.2500
v 0.8800 0.4000 2.2500
v -0.8800 0.4000 2.2500
v 0.8800 0.1500 2.0500
v -0.8800 0.1500 2.0500
v -0.8800 0.4000 2.0500
v 0.8800 0.4000 2.0500
v -0.8800 0.1500 -2.0500
v 0.8800 0.1500 -2.0500
v 0.8800 0.4000 -2.0500
v -0.8800 0.4000 -2.0500
v 0.8800 0.1500 -2.2500
v -0.8800 0.1500 -2.2500
v -0.8800 0.4000 -2.2500
v 0.8800 0.4000 -2.2500
vt 0.0000 0.0000
vt 1.0000 0.0000
vt 1.0000 1.0000
vt 0.0000 1.0000
vn 0.0000 0.0000 1.0000
vn 0.0000 0.0000 -1.0000
vn 0.0000 1.0000 0.0000
vn 0.0000 -1.0000 0.0000
vn 1.0000 0.0000 0.0000
vn -1.0000 0.0000 0.0000
f 1/1/1 2/2/1 3/3/1
f 1/1/1 3/3/1 4/4/1
f 5/1/2 6/2/2 7/3/2
f 5/1/2 7/3/2 8/4/2
f 4/1/3 3/2/3 8/3/3
f 4/1/3 8/3/3 7/4/3
f 6/1/4 5/2/4 2/3/4
f 6/1/4 2/3/4 1/4/4
f 2/1/5 5/2/5 8/3/5
f 2/1/5 8/3/5 3/4/5
f 6/1/6 1/2/6 4/3/6
f 6/1/6 4/3/6 7/4/6
f 9/1/1 10/2/1 11/3/1
f 9/1/1 11/3/1 12/4/1
f 13/1/2 14/2/2 15/3/2
f 13/1/2 15/3/2 16/4/2
f 12/1/3 11/2/3 16/3/3
f 12/1/3 16/3/3 15/4/3
f 14/1/4 13/2/4 10/3/4
f 14/1/4 10/3/4 9/4/4
f 10/1/5 13/2/5 16/3/5
f 10/1/5 16/3/5 11/4/5
f 14/1/6 9/2/6 12/3/6
f 14/1/6 12/3/6 15/4/6
f 17/1/1 18/2/1 19/3/1
f 17/1/1 19/3/1 20/4/1
f 21/1/2 22/2/2 23/3/2
f 21/1/2 23/3/2 24/4/2
f 20/1/3 19/2/3 24/3/3
f 20/1/3 24/3/3 23/4/3
f 22/1/4 21/2/4 18/3/4
f 22/1/4 18/3/4 17/4/4
f 18/1/5 21/2/5 24/3/5
f 18/1/5 24/3/5 19/4/5
f 22/1/6 17/2/6 20/3/6
f 22/1/6 20/3/6 23/4/6
f 25/1/1 26/2/1 27/3/1
f 25/1/1 27/3/1 28/4/1
f 29/1/2 30/2/2 31/3/2
f 29/1/2 31/3/2 32/4/2
f 28/1/3 27/2/3 32/3/3
f 28/1/3 32/3/3 31/4/3
f 30/1/4 29/2/4 26/3/4
f 30/1/4 26/3/4 25/4/4
f 26/1/5 29/2/5 32/3/5
f 26/1/5 32/3/5 27/4/5
f 30/1/6 25/2/6 28/3/6
f 30/1/6 28/3/6 31/4/6
f 33/1/1 34/2/1 35/3/1
f 33/1/1 35/3/1 36/4/1
f 37/1/2 38/2/2 39/3/2
f 37/1/2 39/3/2 40/4/2
f 36/1/3 35/2/3 40/3/3
f 36/1/3 40/3/3 39/4/3
f 38/1/4 37/2/4 34/3/4
f 38/1/4 34/3/4 33/4/4
f 34/1/5 37/2/5 40/3/5
f 34/1/5 40/3/5 35/4/5
f 38/1/6 33/2/6 36/3/6
f 38/1/6 36/3/6 39/4/6
f 41/1/1 42/2/1 43/3/1
f 41/1/1 43/3/1 44/4/1
f 45/1/2 46/2/2 47/3/2
f 45/1/2 47/3/2 48/4/2
f 44/1/3 43/2/3 48/3/3
f 44/1/3 48/3/3 47/4/3
f 46/1/4 45/2/4 42/3/4
f 46/1/4 42/3/4 41/4/4
f 42/1/5 45/2/5 48/3/5
f 42/1/5 48/3/5 43/4/5
f 46/1/6 41/2/6 44/3/6
f 46/1/6 44/3/6 47/4/6
